#!OML:ASF H:\ManfredObstacles\Project 1\Capture day 1\Session 1\Male.ASF
:FULLY-SPECIFIED
:DEGREES
435
root 0.828029 16.4314 -22.1233 -173.947 -8.32667 -174.426
lowerback -8.07784 -4.77339 -0.558354
upperback 2.92043 -6.74102 3.67157
thorax 8.13586 -3.48723 3.15434
lowerneck 3.12719 -1.41626 -7.46582
upperneck 2.42039 -2.08234 8.65783
head 0.410575 -1.04713 4.19498
rclavicle 5.29388e-014 -3.00165e-014
rhumerus -43.6017 -27.7302 -65.6927
rradius 23.2583
rwrist 39.0193
rhand 1.06837 -7.02904
rfingers 7.12502
rthumb 26.6133 -35.1787
lclavicle 5.29388e-014 -3.00165e-014
lhumerus -22.1322 9.61856 87.979
lradius 27.1678
lwrist -22.0174
lhand -12.2752 8.56113
lfingers 7.12502
lthumb 13.7918 38.084
rfemur -33.11 -2.12168 23.7159
rtibia 22.8149
rfoot -14.702 5.09799
rtoes -2.73484
lfemur -9.20893 3.00317 -15.2495
ltibia 25.2894
lfoot -6.27574 -23.4074
ltoes 9.92586
436
root 0.849827 16.4459 -22.3098 -173.792 -9.08189 -174.605
lowerback -8.44024 -4.94004 -0.61592
upperback 2.84699 -6.96269 3.7244
thorax 8.29694 -3.59682 3.17807
lowerneck 2.99293 -1.57191 -7.5336
upperneck 1.8262 -2.2795 8.50807
head 0.258881 -1.15566 4.15573
rclavicle 4.99074e-014 -1.47101e-014
rhumerus -43.6691 -28.0441 -65.6824
rradius 23.3267
rwrist 38.9544
rhand 1.2837 -6.92016
rfingers 7.12502
rthumb 26.8194 -35.0384
lclavicle 4.99074e-014 -1.47101e-014
lhumerus -21.9754 9.77383 88.2036
lradius 26.3077
lwrist -22.6436
lhand -12.2592 8.47722
lfingers 7.12502
lthumb 13.8072 37.999
rfemur -33.1326 -1.78675 23.2854
rtibia 20.2567
rfoot -13.971 3.88769
rtoes -4.03787
lfemur -8.12971 2.67676 -15.1529
ltibia 24.0443
lfoot -5.63362 -23.6924
ltoes 10.9598
437
root 0.871255 16.4385 -22.4992 -173.979 -9.82032 -174.84
lowerback -8.44427 -5.13596 -0.714326
upperback 2.82667 -7.20911 3.70876
thorax 8.30596 -3.72003 3.17484
lowerneck 3.12547 -1.69407 -7.59882
upperneck 1.1103 -2.43418 8.55324
head 0.0190391 -1.24414 4.19125
rclavicle 4.008e-014 1.14301e-014
rhumerus -43.6967 -27.9445 -65.9764
rradius 23.4312
rwrist 38.6234
rhand 1.38965 -6.88541
rfingers 7.12502
rthumb 26.9207 -34.9881
lclavicle 4.008e-014 1.14301e-014
lhumerus -22.0012 10.203 88.2532
lradius 25.4262
lwrist -23.3954
lhand -12.0137 8.4561
lfingers 7.12502
lthumb 14.0438 37.9616
rfemur -32.7647 -1.57962 22.8269
rtibia 18.5339
rfoot -13.6634 3.01752
rtoes -4.79699
lfemur -6.64097 2.1938 -15.1101
ltibia 22.8147
lfoot -5.20042 -23.9042
ltoes 11.9564
438
root 0.893962 16.4117 -22.6917 -174.272 -10.5654 -175.071
lowerback -8.27278 -5.30304 -0.819031
upperback 2.76684 -7.41544 3.71503
thorax 8.17223 -3.82593 3.2224
lowerneck 3.33236 -1.76573 -7.81809
upperneck 0.356461 -2.52402 8.75217
head -0.24852 -1.30051 4.31684
rclavicle -1.21805e-013 5.9039e-014
rhumerus -43.7581 -27.7705 -66.1767
rradius 23.4326
rwrist 38.3221
rhand 1.37651 -6.90157
rfingers 7.12502
rthumb 26.9082 -35.0062
lclavicle -1.21805e-013 5.9039e-014
lhumerus -22.2216 10.8649 88.3085
lradius 24.6121
lwrist -24.2906
lhand -11.9002 8.38213
lfingers 7.12502
lthumb 14.1531 37.88
rfemur -32.1415 -1.3658 22.3631
rtibia 17.5459
rfoot -13.8866 2.59692
rtoes -5.4649
lfemur -5.07727 1.53663 -15.0639
ltibia 21.7354
lfoot -5.11799 -24.0074
ltoes 12.9486
439
root 0.921176 16.3792 -22.8861 -174.607 -11.2811 -175.29
lowerback -8.04598 -5.37933 -0.925763
upperback 2.69898 -7.50305 3.74623
thorax 7.99347 -3.87571 3.32335
lowerneck 3.31693 -1.88645 -8.04905
upperneck -0.233006 -2.67508 8.83147
head -0.418851 -1.38138 4.39901
rclavicle 5.10131e-014 5.36719e-015
rhumerus -43.9893 -27.7882 -66.1111
rradius 23.5831
rwrist 38.1416
rhand 1.49364 -6.99431
rfingers 7.12502
rthumb 27.0202 -35.0816
lclavicle 5.10131e-014 5.36719e-015
lhumerus -22.471 11.5813 88.4164
lradius 23.743
lwrist -25.2976
lhand -11.9593 8.20752
lfingers 7.12502
lthumb 14.0962 37.7094
rfemur -31.3809 -1.43751 22.0865
rtibia 17.0936
rfoot -14.0298 2.81391
rtoes -5.95531
lfemur -3.58385 0.784354 -15.0001
ltibia 20.9152
lfoot -5.30751 -24.0881
ltoes 13.7504
440
root 0.951661 16.3446 -23.084 -174.776 -11.8775 -175.465
lowerback -8.00601 -5.46481 -1.04269
upperback 2.56823 -7.60669 3.82982
thorax 7.86597 -3.93406 3.46827
lowerneck 3.22317 -1.9723 -8.20635
upperneck -0.71416 -2.78002 8.71172
head -0.547809 -1.43529 4.39232
rclavicle 7.20594e-015 1.39149e-014
rhumerus -44.1659 -27.6866 -66.019
rradius 23.7353
rwrist 38.1439
rhand 1.6559 -7.01903
rfingers 7.12502
rthumb 27.1755 -35.0821
lclavicle 7.20594e-015 1.39149e-014
lhumerus -22.7834 12.6194 88.3889
lradius 22.7772
lwrist -26.5292
lhand -11.9417 8.01163
lfingers 7.12502
lthumb 14.1131 37.5123
rfemur -30.7638 -1.48786 21.9502
rtibia 17.042
rfoot -13.6896 3.27708
rtoes -6.14619
lfemur -2.32292 0.108378 -14.8915
ltibia 20.2284
lfoot -5.27322 -24.1518
ltoes 15.3291
441
root 0.982579 16.3134 -23.2879 -174.555 -12.3624 -175.576
lowerback -8.48139 -5.54681 -1.0146
upperback 2.36131 -7.71758 3.89007
thorax 7.9311 -3.98281 3.46258
lowerneck 3.27212 -2.0084 -8.04747
upperneck -1.30724 -2.80992 8.44319
head -0.751937 -1.45178 4.27285
rclavicle 1.20762e-014 -3.10104e-014
rhumerus -44.2213 -27.6141 -66.0122
rradius 23.6836
rwrist 38.3305
rhand 1.57116 -6.8917
rfingers 7.12502
rthumb 27.0944 -34.9674
lclavicle 1.20762e-014 -3.10104e-014
lhumerus -23.1834 13.9277 88.1324
lradius 21.8471
lwrist -27.8887
lhand -11.8159 7.92717
lfingers 7.12502
lthumb 14.2344 37.4194
rfemur -30.6443 -1.21619 21.8528
rtibia 17.333
rfoot -11.9645 3.48701
rtoes -6.99428
lfemur -1.4631 -0.474661 -14.7162
ltibia 19.4833
lfoot -5.03927 -24.1235
ltoes 16.5265
442
root 1.01492 16.296 -23.4983 -174.06 -12.8788 -175.567
lowerback -9.36586 -5.5843 -0.726586
upperback 2.09547 -7.79344 3.87875
thorax 8.11757 -3.9952 3.20798
lowerneck 3.2864 -2.06708 -7.36452
upperneck -1.77818 -2.85215 7.95234
head -0.917351 -1.47209 3.96914
rclavicle 4.32357e-015 -5.64548e-014
rhumerus -44.3379 -27.7763 -66.0775
rradius 23.6312
rwrist 38.429
rhand 1.37442 -6.88076
rfingers 7.12502
rthumb 26.9062 -34.9857
lclavicle 4.32357e-015 -5.64548e-014
lhumerus -23.7167 15.2949 87.6313
lradius 20.9941
lwrist -29.328
lhand -11.6249 7.98738
lfingers 7.12502
lthumb 14.4184 37.4665
rfemur -31.0147 -0.918584 21.8843
rtibia 17.9298
rfoot -8.84901 3.72825
rtoes -6.04775
lfemur -0.868165 -1.1916 -14.3948
ltibia 18.6184
lfoot -4.96004 -24.0048
ltoes 16.0689
443
root 1.04789 16.2933 -23.7123 -173.408 -13.4576 -175.313
lowerback -10.4503 -5.58565 -0.184025
upperback 1.75676 -7.87715 3.94957
thorax 8.31604 -4.00439 2.88214
lowerneck 3.05826 -2.14319 -6.83659
upperneck -1.95171 -2.91852 7.62322
head -0.936802 -1.50055 3.74755
rclavicle 7.0171e-014 4.37326e-015
rhumerus -44.462 -28.2476 -65.9193
rradius 23.4744
rwrist 38.7751
rhand 1.25607 -6.87802
rfingers 7.12502
rthumb 26.7929 -35.0003
lclavicle 7.0171e-014 4.37326e-015
lhumerus -24.2806 16.9299 86.9888
lradius 19.9586
lwrist -30.9622
lhand -11.7078 7.97581
lfingers 7.12502
lthumb 14.3385 37.4607
rfemur -31.6889 -1.07611 22.3622
rtibia 18.697
rfoot -6.4244 3.96206
rtoes -2.91404
lfemur -0.526773 -2.14749 -13.8202
ltibia 17.8272
lfoot -5.17884 -23.6728
ltoes 14.8384
444
root 1.0814 16.2928 -23.9228 -173.012 -13.9734 -174.754
lowerback -11.2834 -5.57481 0.511344
upperback 1.47045 -8.01139 4.20988
thorax 8.43603 -4.04796 2.68287
lowerneck 3.17087 -2.27785 -6.89687
upperneck -2.51511 -3.09278 7.45405
head -1.12665 -1.58802 3.71369
rclavicle 8.10048e-015 2.98177e-014
rhumerus -44.3349 -28.6445 -65.5956
rradius 23.0619
rwrist 39.3951
rhand 1.12864 -6.78647
rfingers 7.12502
rthumb 26.671 -34.9274
lclavicle 8.10048e-015 2.98177e-014
lhumerus -24.871 19.5439 86.1404
lradius 18.6768
lwrist -33.2781
lhand -12.215 7.75101
lfingers 7.12502
lthumb 13.8498 37.2699
rfemur -32.1188 -1.83056 23.4989
rtibia 19.5069
rfoot -5.48866 3.58756
rtoes 0.581891
lfemur -0.0760356 -3.16614 -12.9643
ltibia 17.2254
lfoot -5.21516 -23.0415
ltoes 15.4532
445
root 1.11662 16.3006 -24.1185 -172.152 -14.393 -173.956
lowerback -12.4887 -5.53364 1.38429
upperback 1.01639 -8.18938 4.64547
thorax 8.58935 -4.11731 2.53316
lowerneck 3.2407 -2.28583 -7.01856
upperneck -2.97685 -3.10133 7.31135
head -1.28874 -1.58994 3.69775
rclavicle 2.20651e-014 2.70347e-014
rhumerus -43.9658 -28.673 -65.4603
rradius 22.7762
rwrist 39.6935
rhand 1.08383 -6.96515
rfingers 7.12502
rthumb 26.6281 -35.1126
lclavicle 2.20651e-014 2.70347e-014
lhumerus -25.6824 23.0136 84.9731
lradius 17.3988
lwrist -36.1999
lhand -12.7244 7.60277
lfingers 7.12502
lthumb 13.3589 37.1545
rfemur -33.033 -2.39145 24.9161
rtibia 20.2386
rfoot -6.52616 4.59234
rtoes -1.04224
lfemur -0.436074 -4.26135 -11.8524
ltibia 16.9806
lfoot -5.0628 -21.975
ltoes 16.7617
446
root 1.14753 16.318 -24.2974 -171.619 -14.528 -173.066
lowerback -13.186 -5.31419 2.45767
upperback 0.619685 -8.15958 5.00374
thorax 8.46211 -4.08552 2.28086
lowerneck 3.39476 -2.26224 -7.17938
upperneck -3.45537 -3.06175 7.40019
head -1.47308 -1.56978 3.77313
rclavicle 4.51241e-014 2.0276e-014
rhumerus -43.6355 -28.8087 -65.3982
rradius 22.7002
rwrist 39.7717
rhand 1.08935 -7.23245
rfingers 7.12502
rthumb 26.6334 -35.3791
lclavicle 4.51241e-014 2.0276e-014
lhumerus -26.7559 26.4873 83.4875
lradius 16.2085
lwrist -39.1583
lhand -13.0827 7.66127
lfingers 7.12502
lthumb 13.0135 37.2354
rfemur -33.5571 -2.84869 26.4014
rtibia 20.7813
rfoot -7.24854 5.77712
rtoes -1.20943
lfemur -0.69589 -5.36965 -10.7598
ltibia 17.2214
lfoot -5.62588 -20.6351
ltoes 14.8764
447
root 1.17632 16.3408 -24.4643 -171.416 -14.428 -172.124
lowerback -13.4574 -4.99035 3.63217
upperback 0.343527 -7.9931 5.28926
thorax 8.1974 -3.98928 1.96021
lowerneck 3.61918 -2.28104 -7.1049
upperneck -4.05509 -3.07566 7.26
head -1.71158 -1.57527 3.72792
rclavicle -5.98342e-014 -1.78906e-014
rhumerus -43.2906 -28.9157 -65.4681
rradius 22.7954
rwrist 39.7791
rhand 1.07343 -7.2193
rfingers 7.12502
rthumb 26.6181 -35.3683
lclavicle -5.98342e-014 -1.78906e-014
lhumerus -28.1746 30.1121 81.5254
lradius 15.1075
lwrist -42.4285
lhand -13.4855 7.62206
lfingers 7.12502
lthumb 12.6252 37.2205
rfemur -33.7699 -3.51111 28.0286
rtibia 21.1458
rfoot -7.39551 7.23174
rtoes -3.51464
lfemur -0.756838 -6.15634 -9.6885
ltibia 17.7407
lfoot -6.15232 -19.3467
ltoes 11.9776
448
root 1.20673 16.3606 -24.6286 -171.538 -14.2687 -171.117
lowerback -13.4561 -4.67644 4.8181
upperback 0.227219 -7.82902 5.53562
thorax 7.95183 -3.89522 1.60992
lowerneck 3.46573 -2.29645 -6.98452
upperneck -4.33565 -3.06801 7.18144
head -1.77816 -1.56581 3.67906
rclavicle -1.19221e-013 4.96962e-014
rhumerus -42.8418 -28.5505 -65.9732
rradius 23.2964
rwrist 39.3612
rhand 1.2674 -7.28329
rfingers 7.12502
rthumb 26.8038 -35.4039
lclavicle -1.19221e-013 4.96962e-014
lhumerus -29.8958 33.6892 79.1533
lradius 14.1883
lwrist -45.6886
lhand -13.8213 7.45719
lfingers 7.12502
lthumb 12.3014 37.0753
rfemur -33.4977 -4.24001 29.697
rtibia 21.3326
rfoot -7.54276 8.85384
rtoes -4.97783
lfemur -0.53239 -6.51655 -8.53816
ltibia 18.3004
lfoot -6.08326 -18.4145
ltoes 9.4506
